<?xml version="1.0" standalone="no"?>
<!DOCTYPE svg PUBLIC "-//W3C//DTD SVG 20010904//EN"
 "http://www.w3.org/TR/2001/REC-SVG-20010904/DTD/svg10.dtd">
<svg id="svg" version="1.0" xmlns="http://www.w3.org/2000/svg"
 width="372.000000pt" height="327.000000pt" viewBox="0 0 372.000000 327.000000"
 preserveAspectRatio="xMidYMid meet">

<g transform="translate(0.000000,327.000000) scale(0.100000,-0.100000)"
fill="#000" stroke="none">
<path d="M2647 2899 c-10 -87 -27 -131 -66 -170 -39 -39 -117 -69 -179 -69
-50 0 -37 -7 46 -24 41 -8 89 -25 109 -37 44 -27 80 -101 89 -184 l7 -60 16
80 c27 136 72 180 205 204 70 13 83 21 34 21 -81 0 -181 49 -209 103 -6 11
-19 58 -29 105 l-17 86 -6 -55z"/>
<path d="M1780 2655 c-54 -29 -40 -33 20 -6 58 26 77 18 108 -45 14 -30 30
-54 34 -54 5 0 -5 26 -21 59 -41 80 -64 87 -141 46z"/>
<path d="M1291 2419 c-91 -44 -173 -87 -183 -96 -10 -9 -18 -28 -18 -43 0 -14
68 -165 151 -336 83 -170 171 -351 195 -402 l43 -92 -52 -26 c-70 -36 -168
-133 -205 -202 -93 -175 -87 -379 16 -538 99 -153 258 -238 442 -237 86 0 170
17 181 35 4 6 -26 42 -65 81 -58 57 -77 70 -101 70 -20 -1 -23 0 -8 3 21 5 21
5 3 37 -28 49 -48 118 -59 202 -25 205 88 407 290 517 l31 16 -24 16 c-30 20
-102 45 -153 55 -32 6 -39 11 -37 26 12 77 185 802 194 812 6 7 18 13 27 13
33 1 767 -173 789 -186 12 -8 22 -22 22 -31 0 -8 -45 -209 -100 -446 -55 -237
-98 -432 -95 -435 2 -3 7 1 10 9 15 41 195 841 195 867 0 22 -7 36 -23 46 -12
9 -195 55 -406 105 -406 94 -421 96 -441 49 -8 -20 -190 -795 -190 -812 0 -3
-21 -6 -47 -6 -27 0 -77 -7 -112 -15 -36 -9 -67 -12 -71 -8 -15 19 -390 802
-390 816 0 24 22 37 208 129 98 47 170 86 162 87 -8 0 -89 -36 -179 -80z m314
-1140 c-39 -9 -72 -16 -73 -14 -7 7 40 26 81 34 71 13 65 -2 -8 -20z m-165
-83 c0 -3 -13 -25 -30 -49 -16 -25 -30 -50 -30 -56 0 -6 -5 -11 -11 -11 -6 0
-8 9 -3 23 12 41 74 118 74 93z m-66 -343 c4 -14 3 -23 -3 -23 -13 0 -31 66
-30 110 1 33 2 32 14 -15 6 -27 15 -60 19 -72z m176 -196 c0 -4 -15 0 -32 9
-36 18 -78 53 -78 65 0 10 109 -63 110 -74z"/>
<path d="M1204 2326 c-3 -9 -16 -16 -29 -16 -50 0 -61 -65 -14 -87 15 -7 41
-16 58 -19 29 -6 32 -4 47 31 8 20 14 51 12 69 -3 27 -7 31 -36 34 -22 2 -34
-2 -38 -12z"/>
<path d="M1953 2269 l-42 -30 26 -54 c17 -34 31 -51 37 -46 6 4 28 20 48 35
l37 28 -24 49 c-14 27 -29 49 -33 49 -4 -1 -26 -14 -49 -31z"/>
<path d="M1468 2080 c-121 -64 -132 -228 -23 -329 25 -23 49 -41 55 -41 6 0
10 69 10 195 0 107 -1 195 -2 195 -2 -1 -20 -10 -40 -20z"/>
<path d="M2091 1808 c-101 -73 -189 -141 -194 -150 -9 -13 0 -41 39 -125 46
-98 53 -108 75 -104 13 2 78 4 144 4 103 1 128 -2 173 -21 l54 -22 64 45 c36
26 64 53 64 63 0 14 -166 367 -200 425 -6 9 -16 17 -23 17 -7 0 -95 -60 -196
-132z"/>
<path d="M1052 1752 c-14 -86 -41 -143 -79 -170 -32 -23 -123 -52 -167 -53
-20 -1 -3 -8 48 -20 136 -33 164 -62 196 -201 13 -61 19 -73 19 -47 1 49 29
138 54 173 24 33 78 59 162 76 l60 13 -65 13 c-89 19 -115 31 -150 70 -31 35
-48 86 -59 169 l-6 50 -13 -73z"/>
<path d="M2140 1251 c0 -6 10 -11 23 -11 12 0 40 -3 62 -6 30 -5 37 -4 29 5
-15 16 -114 27 -114 12z"/>
<path d="M1975 1211 c-30 -18 -73 -61 -62 -61 11 0 97 64 97 72 0 11 -1 11
-35 -11z"/>
<path d="M2377 1163 c-3 -5 13 -28 34 -53 46 -54 52 -41 8 18 -32 44 -35 46
-42 35z"/>
<path d="M2516 1147 c-31 -25 -35 -47 -21 -132 13 -82 23 -91 97 -85 l63 5 -1
70 c-1 49 -8 84 -23 118 -20 42 -25 47 -54 47 -18 0 -44 -10 -61 -23z"/>
<path d="M1824 1006 c-3 -21 -4 -39 -1 -42 2 -3 8 11 11 32 4 20 5 38 2 41 -2
3 -8 -11 -12 -31z"/>
<path d="M2478 930 c-4 -8 -9 -36 -12 -62 -6 -54 10 -66 19 -15 8 40 2 100 -7
77z"/>
<path d="M2442 875 c0 -16 2 -22 5 -12 2 9 2 23 0 30 -3 6 -5 -1 -5 -18z"/>
<path d="M1850 774 c0 -28 53 -98 61 -81 1 1 -12 24 -30 51 -21 34 -31 44 -31
30z"/>
<path d="M2414 673 c-38 -32 -81 -68 -94 -80 -23 -22 -69 -31 -84 -16 -4 4
-27 6 -52 4 -28 -2 -44 1 -40 7 3 5 -18 13 -47 18 -72 11 -72 11 -72 -6 0 -9
-13 -17 -33 -20 -26 -4 -38 -14 -58 -49 -14 -25 -23 -50 -20 -58 10 -24 65
-50 136 -62 100 -18 108 -13 112 62 l3 62 53 7 c29 5 71 17 92 28 l40 20 31
-50 c18 -29 38 -50 48 -50 22 0 96 63 132 113 42 57 38 79 -16 105 -25 12 -49
22 -53 22 -4 0 -39 -26 -78 -57z"/>
<path d="M2361 676 c-13 -14 -36 -30 -52 -36 -38 -16 -41 -44 -3 -30 33 13 91
57 98 76 9 22 -18 16 -43 -10z"/>
<path d="M1989 666 c15 -17 109 -51 118 -42 4 3 0 6 -8 6 -8 0 -38 11 -68 25
-33 16 -49 20 -42 11z"/>
<path d="M2235 640 c-11 -5 -32 -9 -47 -9 -19 -1 -26 -5 -22 -15 4 -11 10 -12
32 -2 15 7 38 18 52 24 14 6 21 11 15 11 -5 0 -19 -4 -30 -9z"/>
</g>
</svg>
